name rise30.9205peak61.366fall85.3838.mot
datacolumns 19
datarows 23
range 19.01492800000000 19.05159800000000
endheader
time	ground_force1_vx	ground_force1_vy	ground_force1_vz	ground_force1_px	ground_force1_py	ground_force1_pz	ground_force2_vx	ground_force2_vy	ground_force2_vz	ground_force2_px	ground_force2_py	ground_force2_pz	ground_torque1_x	ground_torque1_y	ground_torque1_z	ground_torque2_x	ground_torque2_y	ground_torque2_z	
19.01492800000000	-40.71961900000000	807.05272300000001	58.05796100000000	0.12874300000000	0.00000000000000	0.10724000000000	-11.45799100000000	45.93409900000000	11.24599100000000	0.36305800000000	0.00000000000000	-0.07288300000000	0.00000000000000	21.69409000000000	0.00000000000000	0.00000000000000	7.20442600000000	0.00000000000000	
19.01659700000000	-40.89229300000000	804.08861200000001	57.80201100000000	0.12811600000000	0.00000000000000	0.10710300000000	-12.41138900000000	52.34801800000000	12.37323100000000	0.36751800000000	0.00000000000000	-0.07371000000000	0.00000000000000	21.53282500000000	0.00000000000000	0.00000000000000	8.01035300000000	0.00000000000000	
19.01826200000000	-41.07963700000000	801.01935700000001	57.51884300000000	0.12750000000000	0.00000000000000	0.10696200000000	-13.17628400000000	58.65884600000000	13.36087100000000	0.37168500000000	0.00000000000000	-0.07448200000000	0.00000000000000	21.37157800000000	0.00000000000000	0.00000000000000	8.74098900000000	0.00000000000000	
19.01992500000000	-41.28238000000000	797.84619599999996	57.20855200000000	0.12689300000000	0.00000000000000	0.10681500000000	-13.73661700000000	64.80189100000000	14.19198500000000	0.37558400000000	0.00000000000000	-0.07520700000000	0.00000000000000	21.21059400000000	0.00000000000000	0.00000000000000	9.38350300000000	0.00000000000000	
19.02159700000000	-41.50120500000000	794.57033300000001	56.87129100000000	0.12629600000000	0.00000000000000	0.10666400000000	-14.08688600000000	70.73867900000000	14.85872800000000	0.37923800000000	0.00000000000000	-0.07589200000000	0.00000000000000	21.05011100000000	0.00000000000000	0.00000000000000	9.93075200000000	0.00000000000000	
19.02326500000000	-41.73674400000000	791.19292499999995	56.50727400000000	0.12570800000000	0.00000000000000	0.10650700000000	-14.23120400000000	76.45618399999999	15.36167300000000	0.38266600000000	0.00000000000000	-0.07654100000000	0.00000000000000	20.89035800000000	0.00000000000000	0.00000000000000	10.38101100000000	0.00000000000000	
19.02492700000000	-41.98957400000000	787.71507299999996	56.11677000000000	0.12512900000000	0.00000000000000	0.10634600000000	-14.18172000000000	81.96410000000000	15.70855700000000	0.38588300000000	0.00000000000000	-0.07715900000000	0.00000000000000	20.73155300000000	0.00000000000000	0.00000000000000	10.73730700000000	0.00000000000000	
19.02659500000000	-42.26021200000000	784.13781800000004	55.70010600000000	0.12455900000000	0.00000000000000	0.10618000000000	-13.95664900000000	87.29069500000000	15.91266200000000	0.38890400000000	0.00000000000000	-0.07775100000000	0.00000000000000	20.57390500000000	0.00000000000000	0.00000000000000	11.00647000000000	0.00000000000000	
19.02826200000000	-42.54911500000000	780.46213299999999	55.25766600000000	0.12399600000000	0.00000000000000	0.10600900000000	-13.57814600000000	92.47786700000000	15.99101900000000	0.39174200000000	0.00000000000000	-0.07831800000000	0.00000000000000	20.41761000000000	0.00000000000000	0.00000000000000	11.19802800000000	0.00000000000000	
19.02992900000000	-42.85667100000000	776.68891900000006	54.78988600000000	0.12344100000000	0.00000000000000	0.10583300000000	-13.07021500000000	97.57592099999999	15.96261000000000	0.39440700000000	0.00000000000000	-0.07886500000000	0.00000000000000	20.26285400000000	0.00000000000000	0.00000000000000	11.32307200000000	0.00000000000000	
19.03159600000000	-43.18319900000000	772.81899599999997	54.29725600000000	0.12289300000000	0.00000000000000	0.10565300000000	-12.45683300000000	102.63856199999999	15.84672600000000	0.39691000000000	0.00000000000000	-0.07939300000000	0.00000000000000	20.10980900000000	0.00000000000000	0.00000000000000	11.39318300000000	0.00000000000000	
19.03326700000000	-43.52894300000000	768.85310400000003	53.78031400000000	0.12235200000000	0.00000000000000	0.10546900000000	-11.76038000000000	107.71845100000000	15.66157700000000	0.39925900000000	0.00000000000000	-0.07990400000000	0.00000000000000	19.95863300000000	0.00000000000000	0.00000000000000	11.41950400000000	0.00000000000000	
19.03492800000000	-43.89407100000000	764.79189299999996	53.23965100000000	0.12181700000000	0.00000000000000	0.10528000000000	-11.00046900000000	112.86358799999999	15.42321900000000	0.40146300000000	0.00000000000000	-0.08040000000000	0.00000000000000	19.80947200000000	0.00000000000000	0.00000000000000	11.41199800000000	0.00000000000000	
19.03661000000000	-44.27867000000000	760.63592600000004	52.67589900000000	0.12128700000000	0.00000000000000	0.10508600000000	-10.19317900000000	118.11464200000000	15.14483600000000	0.40352900000000	0.00000000000000	-0.08088200000000	0.00000000000000	19.66245600000000	0.00000000000000	0.00000000000000	11.37893700000000	0.00000000000000	
19.03825800000000	-44.68274400000000	756.38567300000000	52.08974000000000	0.12076200000000	0.00000000000000	0.10488900000000	-9.35068500000000	123.50328100000000	14.83635600000000	0.40546300000000	0.00000000000000	-0.08135300000000	0.00000000000000	19.51770300000000	0.00000000000000	0.00000000000000	11.32659400000000	0.00000000000000	
19.03993200000000	-45.10620900000000	752.04151100000001	51.48189200000000	0.12024100000000	0.00000000000000	0.10468700000000	-8.48124300000000	129.05143600000000	14.50437700000000	0.40727200000000	0.00000000000000	-0.08181200000000	0.00000000000000	19.37531200000000	0.00000000000000	0.00000000000000	11.25915800000000	0.00000000000000	
19.04159400000000	-45.54889300000000	747.60372199999995	50.85311600000000	0.11972300000000	0.00000000000000	0.10448200000000	-7.58946800000000	134.77139099999999	14.15236100000000	0.40896000000000	0.00000000000000	-0.08226200000000	0.00000000000000	19.23536900000000	0.00000000000000	0.00000000000000	11.17880800000000	0.00000000000000	
19.04326100000000	-46.01053200000000	743.07249700000000	50.20420800000000	0.11920900000000	0.00000000000000	0.10427200000000	-6.67682300000000	140.66653700000001	13.78101500000000	0.41053400000000	0.00000000000000	-0.08270200000000	0.00000000000000	19.09794400000000	0.00000000000000	0.00000000000000	11.08594100000000	0.00000000000000	
19.04493300000000	-46.49076900000000	738.44793400000003	49.53599500000000	0.11869600000000	0.00000000000000	0.10405900000000	-5.74225600000000	146.73262299999999	13.38881000000000	0.41199800000000	0.00000000000000	-0.08313300000000	0.00000000000000	18.96309100000000	0.00000000000000	0.00000000000000	10.97948500000000	0.00000000000000	
19.04659200000000	-46.98914900000000	733.73004000000003	48.84933900000000	0.11818500000000	0.00000000000000	0.10384300000000	-4.78289600000000	152.95929599999999	12.97257500000000	0.41335700000000	0.00000000000000	-0.08355700000000	0.00000000000000	18.83084700000000	0.00000000000000	0.00000000000000	10.85727100000000	0.00000000000000	
19.04826600000000	-47.50512000000000	728.91873499999997	48.14512500000000	0.11767500000000	0.00000000000000	0.10362400000000	-3.79476200000000	159.33179200000001	12.52809300000000	0.41461400000000	0.00000000000000	-0.08397300000000	0.00000000000000	18.70123200000000	0.00000000000000	0.00000000000000	10.71642000000000	0.00000000000000	
19.04992500000000	-48.03803400000000	724.01385500000004	47.42426600000000	0.11716500000000	0.00000000000000	0.10340100000000	-2.77341200000000	165.83259100000001	12.05067600000000	0.41577300000000	0.00000000000000	-0.08438200000000	0.00000000000000	18.57425100000000	0.00000000000000	0.00000000000000	10.55371900000000	0.00000000000000	
19.05159800000000	-48.58714000000000	719.01515800000004	46.68769400000000	0.11665500000000	0.00000000000000	0.10317600000000	-1.71450800000000	172.44295600000001	11.53565900000000	0.41683900000000	0.00000000000000	-0.08478400000000	0.00000000000000	18.44989100000000	0.00000000000000	0.00000000000000	10.36595000000000	0.00000000000000	
